<svg width="90" height="20" viewBox="0 0 90 20" fill="none" xmlns="http://www.w3.org/2000/svg">
<g id="logo/top/Expedia">
<rect width="90" height="20" fill="white"/>
<g id="expedia_logo">
<g id="Group">
<path id="Shape" fill-rule="evenodd" clip-rule="evenodd" d="M12.7947 17.4487H3.31006C1.48528 17.4487 0 15.9669 0 14.1394V4.67721C0 2.85677 1.48528 1.375 3.31006 1.375H12.7947C14.6265 1.375 16.1047 2.85677 16.1047 4.67721V14.1394C16.1118 15.9669 14.6265 17.4487 12.7947 17.4487V17.4487Z" fill="#FDDB32"/>
<path id="Shape_2" fill-rule="evenodd" clip-rule="evenodd" d="M4.92155 14.3232V12.7638C4.92155 12.6367 4.82251 12.538 4.69523 12.538H3.13214C3.00482 12.538 2.90581 12.6367 2.90581 12.7638V14.3232C2.90581 14.4502 3.00482 14.5489 3.13214 14.5489H4.69523C4.82251 14.5489 4.92155 14.4502 4.92155 14.3232V14.3232Z" fill="#191E3B"/>
<path id="Shape_3" fill-rule="evenodd" clip-rule="evenodd" d="M13.2054 12.9822V5.29816C13.2054 4.72658 12.7457 4.26794 12.1727 4.26794H4.47049C4.31489 4.26794 4.22295 4.32441 4.12394 4.42318L2.58914 5.96845C2.47598 6.08135 2.55378 6.25071 2.72353 6.25071H9.69023L5.36874 10.5619C5.29094 10.6396 5.25558 10.7172 5.25558 10.8442V11.9802C5.25558 12.1143 5.34754 12.206 5.4819 12.206H6.62064C6.755 12.206 6.8328 12.1708 6.90352 12.0931L11.225 7.78186V14.7321C11.225 14.9014 11.3947 14.979 11.5079 14.8662L13.0569 13.3279C13.1488 13.2291 13.2054 13.1374 13.2054 12.9822V12.9822Z" fill="#191E3B"/>
<path id="Shape_4" fill-rule="evenodd" clip-rule="evenodd" d="M36.5876 10.9994L39.7421 6.65294C39.834 6.51885 39.7633 6.38477 39.6077 6.38477H37.889C37.7971 6.38477 37.6769 6.42008 37.6203 6.51885L35.5409 9.54591L33.412 6.51885C33.3554 6.42711 33.2422 6.38477 33.1432 6.38477H31.3113C31.2194 6.38477 31.1557 6.46238 31.1557 6.54C31.1557 6.57532 31.1557 6.61762 31.1911 6.65294L34.3527 11.0136L30.8658 15.7976C30.7738 15.9316 30.8445 16.0657 30.9789 16.0657H32.7118C32.8037 16.0657 32.924 16.0304 32.9805 15.9316L35.3924 12.4671L37.8395 15.9316C37.8961 16.0304 38.0093 16.0657 38.1083 16.0657H39.9543C40.0462 16.0657 40.1099 15.9881 40.1099 15.9105C40.1099 15.8752 40.0886 15.8329 40.0745 15.7976L36.5876 10.9994V10.9994Z" fill="#191E3B"/>
<path id="Shape_5" fill-rule="evenodd" clip-rule="evenodd" d="M29.5431 2.75085C29.6775 2.75085 29.7694 2.84259 29.7694 2.97665V4.26792C29.7694 4.40196 29.6775 4.49371 29.5431 4.49371H23.3827V8.33218H28.9137C29.048 8.33218 29.14 8.42392 29.14 8.55801V9.84218C29.14 9.97626 29.048 10.068 28.9137 10.068H23.3827V14.2734H29.5431C29.6775 14.2734 29.7694 14.3651 29.7694 14.4992V15.8328C29.7694 15.9669 29.6775 16.0586 29.5431 16.0586H22.3359C21.7843 16.0586 21.367 15.6423 21.367 15.0919V3.71754C21.367 3.16716 21.7843 2.75085 22.3359 2.75085H29.5431" fill="#191E3B"/>
<path id="Shape_6" fill-rule="evenodd" clip-rule="evenodd" d="M46.6021 6.08142C44.7351 6.08142 43.7447 6.89989 43.1719 7.66197V6.61061C43.1719 6.47653 43.0802 6.38483 42.9458 6.38483H41.4391C41.3048 6.38483 41.2128 6.48359 41.2128 6.61061V19.1421C41.2128 19.2762 41.3048 19.368 41.4391 19.368H42.9667C43.1011 19.368 43.1932 19.2762 43.1932 19.1421V14.8238C43.7447 15.5859 44.7351 16.348 46.6021 16.348C49.6365 16.348 51.4045 14.0689 51.4045 11.2112C51.4045 8.35346 49.6365 6.08142 46.6021 6.08142V6.08142ZM46.2626 14.711C44.3956 14.711 43.1156 13.455 43.1156 11.2323C43.1156 9.00971 44.3956 7.71136 46.2626 7.71136C48.13 7.71136 49.3891 9.00264 49.3891 11.2323C49.3891 13.455 48.13 14.711 46.2626 14.711V14.711Z" fill="#191E3B"/>
<path id="Shape_7" fill-rule="evenodd" clip-rule="evenodd" d="M57.4166 6.08142C54.7644 6.08142 52.6496 7.98653 52.6496 11.1406C52.6496 14.3723 54.5165 16.355 57.664 16.355C59.4746 16.355 60.9812 15.5577 61.9149 14.4499C61.9712 14.3934 61.9925 14.337 61.9925 14.2805C61.9925 14.2241 61.9712 14.1676 61.9149 14.1112L61.0379 13.2504C60.9812 13.1939 60.9245 13.1727 60.8681 13.1727C60.8114 13.1727 60.7547 13.208 60.6984 13.2645C59.9767 14.0477 59.0362 14.711 57.6853 14.711C55.7117 14.711 54.7644 13.4973 54.6155 11.7474H61.9358C62.0701 11.7474 62.1623 11.6486 62.1623 11.5216V11.1406C62.1623 8.24759 60.4083 6.08142 57.4166 6.08142V6.08142ZM54.6863 10.2656C54.9128 8.67803 55.7471 7.64079 57.4025 7.64079C59.0997 7.64079 59.998 8.60747 60.1251 10.2656H54.6863V10.2656Z" fill="#191E3B"/>
<path id="Shape_8" fill-rule="evenodd" clip-rule="evenodd" d="M89.4208 6.38461H87.9142C87.7799 6.38461 87.6877 6.47636 87.6877 6.6104V7.67589C87.1149 6.9138 86.1249 6.09534 84.2153 6.09534C81.2235 6.09534 79.4482 8.37444 79.4482 11.2321C79.4482 14.0898 81.2235 16.369 84.2153 16.369C86.1249 16.369 87.1149 15.5504 87.6877 14.7884V15.8327C87.6877 15.9667 87.7799 16.0585 87.9142 16.0585H89.4208C89.5551 16.0585 89.6473 15.9667 89.6473 15.8327V6.6104C89.6541 6.47636 89.5551 6.38461 89.4208 6.38461V6.38461ZM84.597 14.7319C82.73 14.7319 81.4709 13.4407 81.4709 11.2109C81.4709 8.9883 82.73 7.7323 84.597 7.7323C86.4644 7.7323 87.7445 8.9883 87.7445 11.2109C87.7445 13.4407 86.4644 14.7319 84.597 14.7319V14.7319Z" fill="#191E3B"/>
<path id="Shape_9" fill-rule="evenodd" clip-rule="evenodd" d="M73.3739 2.75085H71.846C71.7117 2.75085 71.62 2.84259 71.62 2.97665V7.67597C71.0467 6.91392 70.078 6.09541 68.1684 6.09541C65.1766 6.09541 63.4014 8.37452 63.4014 11.2322C63.4014 14.0899 65.1766 16.369 68.1684 16.369C70.078 16.369 71.068 15.5506 71.6409 14.7885V15.8328C71.6409 15.9669 71.733 16.0586 71.8674 16.0586H73.3739C73.5083 16.0586 73.6 15.9669 73.6 15.8328V2.97665C73.6 2.84259 73.5083 2.75085 73.3739 2.75085V2.75085ZM68.5502 14.7321C66.6832 14.7321 65.424 13.4408 65.424 11.2111C65.424 8.98843 66.6832 7.73247 68.5502 7.73247C70.4175 7.73247 71.6976 8.98843 71.6976 11.2111C71.6976 13.4408 70.4175 14.7321 68.5502 14.7321V14.7321Z" fill="#191E3B"/>
<path id="Shape_10" fill-rule="evenodd" clip-rule="evenodd" d="M77.5254 2.75085C77.6598 2.75085 77.7515 2.84259 77.7515 2.97665V4.53605C77.7515 4.67009 77.6598 4.76184 77.5254 4.76184H75.9622C75.8278 4.76184 75.7361 4.67009 75.7361 4.53605V2.97665C75.7361 2.84259 75.8278 2.75085 75.9622 2.75085H77.5254V2.75085Z" fill="#191E3B"/>
<path id="Shape_11" fill-rule="evenodd" clip-rule="evenodd" d="M77.51 6.38477C77.6444 6.38477 77.7361 6.47651 77.7361 6.6106V15.8329C77.7361 15.9669 77.6444 16.0586 77.51 16.0586H75.9822C75.8478 16.0586 75.7557 15.9669 75.7557 15.8329V6.6106C75.7557 6.47651 75.8478 6.38477 75.9822 6.38477H77.51V6.38477Z" fill="#191E3B"/>
</g>
</g>
</g>
</svg>
