<svg width="81" height="24" viewBox="0 0 81 24" fill="none" xmlns="http://www.w3.org/2000/svg">
<g id="logo/Tiki">
<rect width="81" height="24" fill="white"/>
<g id="Tiki-Logo 1" clip-path="url(#clip0_0_4850)">
<path id="Vector" fill-rule="evenodd" clip-rule="evenodd" d="M11.4675 3.76027C12.0644 2.81449 12.5878 1.82327 13.028 0.802704C13.043 0.767633 13.0579 0.732205 13.0729 0.697139L11.3675 6.10352e-05C11.3536 0.0322669 11.3398 0.0648307 11.3259 0.0970365C11.0321 0.778012 10.6974 1.44503 10.3261 2.09237C10.5119 2.39725 10.7061 2.69748 10.9087 2.99127C11.0883 3.25178 11.2748 3.50835 11.4675 3.76027Z" fill="#95E4D6"/>
<path id="Vector_2" fill-rule="evenodd" clip-rule="evenodd" d="M17.6145 9.98987C17.114 10.2615 16.6256 10.5546 16.1522 10.8684C16.0427 10.9407 15.9339 11.0148 15.8262 11.0892C16.6512 11.563 17.5075 11.9849 18.3846 12.3484C18.5661 12.4236 18.7482 12.4962 18.9318 12.5667L19.6352 10.8913C19.4574 10.8233 19.2804 10.7528 19.1045 10.6798C18.5996 10.4705 18.1021 10.24 17.6145 9.98987Z" fill="#95E4D6"/>
<path id="Vector_3" fill-rule="evenodd" clip-rule="evenodd" d="M8.16781 3.76027C8.25027 3.89088 8.33387 4.02042 8.41931 4.14924C8.4945 4.26304 8.57077 4.37612 8.64817 4.48849C8.6573 4.5021 8.66679 4.51531 8.67628 4.52892C9.0336 5.04492 9.41506 5.54732 9.81766 6.03292C9.91187 6.14635 10.0071 6.25942 10.1039 6.37143C10.2002 6.48274 10.2977 6.59294 10.3962 6.70243C10.7036 7.04456 11.0219 7.37733 11.35 7.69905C11.7917 8.13202 12.2531 8.54751 12.7312 8.94288C13.1857 8.59041 13.6533 8.25442 14.1322 7.93738C14.18 7.90588 14.2275 7.87473 14.2753 7.84362C13.7102 7.39668 13.1693 6.92035 12.6568 6.41796C12.2677 6.0365 11.8943 5.63896 11.5373 5.22741C11.4387 5.11328 11.3413 4.99839 11.2452 4.88245C11.1485 4.7658 11.0532 4.64773 10.9591 4.52892C10.6875 4.18538 10.4269 3.83363 10.1794 3.47435C10.0556 3.29508 9.93523 3.11329 9.81766 2.92972C9.73045 2.79374 9.64464 2.65633 9.56069 2.5182C9.47493 2.37721 9.39133 2.23514 9.30919 2.09237C8.93799 1.44503 8.60326 0.778012 8.30942 0.0970365C8.29555 0.0648307 8.28168 0.0322669 8.2678 6.10352e-05L6.56243 0.697139C6.57743 0.732205 6.59238 0.767633 6.60734 0.802704C7.04753 1.82327 7.571 2.81449 8.16781 3.76027Z" fill="#95E4D6"/>
<path id="Vector_4" fill-rule="evenodd" clip-rule="evenodd" d="M2.02079 9.01021C2.52123 8.7386 3.00963 8.44555 3.48306 8.1317C3.59257 8.05941 3.70134 7.98536 3.80902 7.9109C2.98408 7.43714 2.12775 7.01525 1.25061 6.65169C1.06919 6.57653 0.887048 6.50389 0.703443 6.43341L5.51576e-05 8.10881C0.177819 8.17681 0.354853 8.24729 0.53079 8.32029C1.03561 8.52964 1.53313 8.76007 2.02079 9.01021Z" fill="#95E4D6"/>
<path id="Vector_5" fill-rule="evenodd" clip-rule="evenodd" d="M11.4675 15.2398C11.385 15.1091 11.3014 14.9796 11.216 14.8508C11.1409 14.737 11.0645 14.6239 10.9872 14.5115C10.9781 14.498 10.9686 14.4847 10.9591 14.4711C10.6017 13.9551 10.2203 13.4527 9.81766 12.9671C9.72349 12.8537 9.62819 12.7406 9.5315 12.6286C9.43512 12.5173 9.33765 12.4071 9.23911 12.2976C8.93176 11.9554 8.61347 11.6227 8.28534 11.301C7.84365 10.868 7.38227 10.4525 6.90407 10.0571C6.44964 10.4096 5.98207 10.7456 5.50315 11.0627C5.45534 11.0941 5.4079 11.1253 5.36005 11.1564C5.92509 11.6033 6.46605 12.0797 6.97854 12.5821C7.36767 12.9635 7.74108 13.3611 8.09804 13.7726C8.19659 13.8867 8.29406 14.0016 8.39008 14.1176C8.48682 14.2342 8.58207 14.3523 8.67623 14.4711C8.94784 14.8146 9.20842 15.1664 9.45595 15.5257C9.57967 15.7049 9.70013 15.8867 9.81766 16.0703C9.90491 16.2063 9.99067 16.3437 10.0746 16.4818C10.1604 16.6228 10.244 16.7649 10.3261 16.9076C10.6974 17.555 11.0321 18.222 11.3259 18.903C11.3398 18.9352 11.3536 18.9677 11.3675 18.9999L13.0729 18.3029C13.0579 18.2678 13.043 18.2324 13.028 18.1973C12.5878 17.1767 12.0644 16.1855 11.4675 15.2398Z" fill="#95E4D6"/>
<path id="Vector_6" fill-rule="evenodd" clip-rule="evenodd" d="M6.55714 9.22407C6.67358 9.13141 6.78966 9.038 6.90425 8.94318C7.38245 8.54741 7.84347 8.13193 8.28511 7.69895C8.61365 7.37727 8.93157 7.04446 9.23929 6.70273C8.83813 6.22574 8.45704 5.73333 8.09786 5.22736C7.74126 5.63886 7.36749 6.0368 6.97835 6.41786C6.46623 6.9203 5.92491 7.39693 5.35987 7.84352C5.23976 7.9387 5.11822 8.03246 4.99594 8.12477C4.87223 8.21818 4.74738 8.31017 4.62145 8.40066C4.409 8.5535 4.194 8.70237 3.97572 8.84655C3.63114 9.07486 3.2789 9.29278 2.92045 9.49997C2.77445 9.58441 2.62735 9.66673 2.47915 9.74759C2.3273 9.83026 2.17472 9.91112 2.02069 9.98986C1.53302 10.24 1.03587 10.4704 0.530682 10.6798C0.355107 10.7528 0.178073 10.8233 -5.51576e-05 10.8913L0.703335 12.5667C0.88694 12.4962 1.06945 12.4235 1.2505 12.3484C2.128 11.9848 2.98433 11.5629 3.80927 11.0892C3.94725 11.0101 4.0845 10.9296 4.22065 10.8472C4.35534 10.766 4.48894 10.6834 4.62145 10.5996C4.75213 10.517 4.88172 10.4332 5.01054 10.3477C5.41644 10.079 5.81393 9.79557 6.20234 9.49997C6.32132 9.40908 6.43997 9.31713 6.55714 9.22407Z" fill="#95E4D6"/>
<path id="Vector_7" fill-rule="evenodd" clip-rule="evenodd" d="M8.16781 15.2397C7.571 16.1855 7.04753 17.1767 6.60734 18.1973C6.59238 18.2324 6.57743 18.2678 6.56243 18.3029L8.2678 18.9999C8.28168 18.9677 8.29555 18.9352 8.30942 18.903C8.60326 18.222 8.93799 17.555 9.30919 16.9076C9.12343 16.6028 8.92922 16.3026 8.72661 16.0084C8.54705 15.7482 8.36052 15.4917 8.16781 15.2397Z" fill="#95E4D6"/>
<path id="Vector_8" fill-rule="evenodd" clip-rule="evenodd" d="M17.1563 9.2524C17.3081 9.16973 17.4607 9.08887 17.6144 9.01013C18.102 8.75999 18.5995 8.52956 19.1047 8.32021C19.2803 8.24721 19.4573 8.17669 19.6354 8.10874L18.9317 6.43329C18.7485 6.50381 18.566 6.57645 18.3845 6.65157C17.5074 7.01517 16.6511 7.43706 15.8261 7.91083C15.6882 7.98992 15.5509 8.07078 15.4147 8.15274C15.28 8.23396 15.1465 8.31663 15.014 8.40036C14.8833 8.48304 14.7537 8.56677 14.6249 8.65227C14.2186 8.92101 13.8211 9.20442 13.4331 9.50002C13.3137 9.59091 13.1954 9.68286 13.0783 9.77592C12.9615 9.86858 12.8457 9.96199 12.7312 10.0572C12.253 10.4526 11.7916 10.8681 11.3503 11.301C11.0218 11.6227 10.7035 11.9555 10.3961 12.2976C10.7973 12.7743 11.1784 13.2667 11.5375 13.7726C11.8941 13.3611 12.2679 12.9632 12.6567 12.5821C13.1692 12.0797 13.7105 11.6034 14.2752 11.1565C14.3956 11.0613 14.5172 10.9679 14.6395 10.8752C14.7632 10.7818 14.888 10.6898 15.014 10.5997C15.2264 10.4465 15.4414 10.2976 15.6593 10.1534C16.0039 9.92514 16.3561 9.70721 16.7149 9.50002C16.8609 9.41558 17.0081 9.33326 17.1563 9.2524Z" fill="#95E4D6"/>
<path id="Vector_9" fill-rule="evenodd" clip-rule="evenodd" d="M24.3333 5.91455H28.1729V15.1533H30.2254V5.91455H34.065V3.9024H24.3333V5.91455Z" fill="#95E4D6"/>
<path id="Vector_10" fill-rule="evenodd" clip-rule="evenodd" d="M37.8243 15.1911H39.8764V3.86505H37.8243V15.1911Z" fill="#95E4D6"/>
<path id="Vector_11" fill-rule="evenodd" clip-rule="evenodd" d="M58.9477 15.1911H61V3.86505H58.9477V15.1911Z" fill="#95E4D6"/>
<path id="Vector_12" fill-rule="evenodd" clip-rule="evenodd" d="M56.1331 3.80902H53.2069L49.4163 7.52843C48.7688 8.16361 47.9076 8.51356 46.9917 8.51356H46.9596H46.6745V8.47817V3.82119H44.6226V15.1469H46.6745V10.5425H46.9596C47.8782 10.5425 48.7724 10.9122 49.4136 11.557L52.9846 15.148H55.8755L50.8957 10.1407C50.6761 9.91992 50.4366 9.72024 50.1836 9.54093C50.4289 9.36847 50.6625 9.17631 50.8803 8.96267L56.1331 3.80902Z" fill="#95E4D6"/>
</g>
</g>
<defs>
<clipPath id="clip0_0_4850">
<rect width="61" height="19" fill="white"/>
</clipPath>
</defs>
</svg>
